<?xml version="1.0" encoding="UTF-8"?>
<svg xmlns="http://www.w3.org/2000/svg" width="1600" height="900" viewBox="0 0 1600 900">
  <defs>
    <linearGradient id="bg" x1="0" y1="0" x2="1" y2="1">
      <stop offset="0%" stop-color="#0b0d12"/>
      <stop offset="60%" stop-color="#111422"/>
      <stop offset="100%" stop-color="#0f1115"/>
    </linearGradient>
    <radialGradient id="g1" cx="20%" cy="18%" r="65%">
      <stop offset="0%" stop-color="#aab3ff" stop-opacity="0.22"/>
      <stop offset="60%" stop-color="#aab3ff" stop-opacity="0.05"/>
      <stop offset="100%" stop-color="#aab3ff" stop-opacity="0"/>
    </radialGradient>
    <radialGradient id="g2" cx="84%" cy="74%" r="72%">
      <stop offset="0%" stop-color="#4dffb5" stop-opacity="0.18"/>
      <stop offset="65%" stop-color="#4dffb5" stop-opacity="0.04"/>
      <stop offset="100%" stop-color="#4dffb5" stop-opacity="0"/>
    </radialGradient>
    <filter id="blur" x="-20%" y="-20%" width="140%" height="140%">
      <feGaussianBlur stdDeviation="18"/>
    </filter>
    <linearGradient id="stroke" x1="0" y1="0" x2="1" y2="1">
      <stop offset="0%" stop-color="#ffffff" stop-opacity="0.75"/>
      <stop offset="100%" stop-color="#aab3ff" stop-opacity="0.55"/>
    </linearGradient>
  </defs>

  <rect width="1600" height="900" fill="url(#bg)"/>
  <rect width="1600" height="900" fill="url(#g1)"/>
  <rect width="1600" height="900" fill="url(#g2)"/>

  <g filter="url(#blur)" opacity="0.85">
    <path d="M-80,560 C250,410 520,920 900,690 C1210,500 1320,250 1720,330" fill="none" stroke="url(#stroke)" stroke-width="6" stroke-linecap="round"/>
    <path d="M-80,680 C210,520 560,980 980,760 C1320,580 1420,340 1750,410" fill="none" stroke="url(#stroke)" stroke-width="3.5" stroke-linecap="round" opacity="0.55"/>
  </g>

  <g opacity="0.55"><circle cx="1544" cy="336" r="3" fill="#aab3ff" opacity="0.08"/>
<circle cx="1372" cy="98" r="1" fill="#4dffb5" opacity="0.05"/>
<circle cx="1029" cy="491" r="2" fill="#4dffb5" opacity="0.05"/>
<circle cx="358" cy="558" r="1" fill="#4dffb5" opacity="0.08"/>
<circle cx="1505" cy="20" r="2" fill="#4dffb5" opacity="0.12"/>
<circle cx="954" cy="564" r="2" fill="#4dffb5" opacity="0.10"/>
<circle cx="609" cy="179" r="2" fill="#ffffff" opacity="0.11"/>
<circle cx="606" cy="29" r="1" fill="#aab3ff" opacity="0.13"/>
<circle cx="984" cy="297" r="1" fill="#aab3ff" opacity="0.14"/>
<circle cx="594" cy="529" r="2" fill="#4dffb5" opacity="0.11"/>
<circle cx="1523" cy="277" r="2" fill="#ffffff" opacity="0.08"/>
<circle cx="1341" cy="620" r="2" fill="#4dffb5" opacity="0.10"/>
<circle cx="184" cy="9" r="3" fill="#aab3ff" opacity="0.10"/>
<circle cx="744" cy="551" r="2" fill="#ffffff" opacity="0.04"/>
<circle cx="785" cy="203" r="1" fill="#4dffb5" opacity="0.07"/>
<circle cx="429" cy="119" r="2" fill="#ffffff" opacity="0.06"/>
<circle cx="850" cy="715" r="2" fill="#4dffb5" opacity="0.13"/>
<circle cx="669" cy="448" r="3" fill="#ffffff" opacity="0.07"/>
<circle cx="847" cy="196" r="3" fill="#aab3ff" opacity="0.10"/>
<circle cx="728" cy="283" r="1" fill="#4dffb5" opacity="0.07"/>
<circle cx="943" cy="606" r="3" fill="#4dffb5" opacity="0.12"/>
<circle cx="36" cy="444" r="3" fill="#4dffb5" opacity="0.13"/>
<circle cx="1340" cy="295" r="2" fill="#4dffb5" opacity="0.09"/>
<circle cx="1412" cy="622" r="2" fill="#ffffff" opacity="0.09"/>
<circle cx="319" cy="350" r="3" fill="#aab3ff" opacity="0.08"/>
<circle cx="549" cy="774" r="1" fill="#ffffff" opacity="0.08"/>
<circle cx="95" cy="355" r="2" fill="#ffffff" opacity="0.08"/>
<circle cx="846" cy="95" r="3" fill="#ffffff" opacity="0.05"/>
<circle cx="1093" cy="571" r="3" fill="#4dffb5" opacity="0.05"/>
<circle cx="1082" cy="270" r="2" fill="#aab3ff" opacity="0.07"/>
<circle cx="109" cy="267" r="1" fill="#4dffb5" opacity="0.09"/>
<circle cx="177" cy="129" r="3" fill="#ffffff" opacity="0.10"/>
<circle cx="308" cy="524" r="1" fill="#ffffff" opacity="0.09"/>
<circle cx="378" cy="638" r="2" fill="#4dffb5" opacity="0.06"/>
<circle cx="386" cy="147" r="2" fill="#4dffb5" opacity="0.08"/>
<circle cx="31" cy="575" r="1" fill="#aab3ff" opacity="0.05"/>
<circle cx="1226" cy="561" r="2" fill="#4dffb5" opacity="0.09"/>
<circle cx="1391" cy="614" r="2" fill="#ffffff" opacity="0.14"/>
<circle cx="141" cy="758" r="1" fill="#aab3ff" opacity="0.05"/>
<circle cx="610" cy="314" r="2" fill="#4dffb5" opacity="0.08"/>
<circle cx="274" cy="441" r="1" fill="#ffffff" opacity="0.08"/>
<circle cx="780" cy="704" r="1" fill="#ffffff" opacity="0.10"/>
<circle cx="1495" cy="866" r="1" fill="#aab3ff" opacity="0.08"/>
<circle cx="1152" cy="361" r="3" fill="#ffffff" opacity="0.07"/>
<circle cx="894" cy="708" r="3" fill="#ffffff" opacity="0.08"/>
<circle cx="1" cy="651" r="2" fill="#4dffb5" opacity="0.08"/>
<circle cx="625" cy="365" r="1" fill="#ffffff" opacity="0.10"/>
<circle cx="376" cy="296" r="3" fill="#4dffb5" opacity="0.12"/>
<circle cx="722" cy="218" r="3" fill="#4dffb5" opacity="0.10"/>
<circle cx="1022" cy="460" r="2" fill="#aab3ff" opacity="0.11"/>
<circle cx="1464" cy="158" r="1" fill="#aab3ff" opacity="0.05"/>
<circle cx="476" cy="866" r="2" fill="#4dffb5" opacity="0.06"/>
<circle cx="1019" cy="412" r="1" fill="#aab3ff" opacity="0.10"/>
<circle cx="1550" cy="371" r="2" fill="#4dffb5" opacity="0.07"/>
<circle cx="1277" cy="252" r="2" fill="#ffffff" opacity="0.09"/>
<circle cx="956" cy="46" r="2" fill="#aab3ff" opacity="0.07"/>
<circle cx="1189" cy="139" r="1" fill="#aab3ff" opacity="0.10"/>
<circle cx="1460" cy="873" r="2" fill="#aab3ff" opacity="0.09"/>
<circle cx="142" cy="777" r="1" fill="#4dffb5" opacity="0.11"/>
<circle cx="121" cy="761" r="1" fill="#ffffff" opacity="0.07"/>
<circle cx="197" cy="58" r="1" fill="#aab3ff" opacity="0.13"/>
<circle cx="318" cy="64" r="3" fill="#4dffb5" opacity="0.05"/>
<circle cx="1401" cy="307" r="2" fill="#4dffb5" opacity="0.07"/>
<circle cx="176" cy="681" r="1" fill="#4dffb5" opacity="0.09"/>
<circle cx="440" cy="294" r="1" fill="#4dffb5" opacity="0.08"/>
<circle cx="336" cy="293" r="1" fill="#aab3ff" opacity="0.13"/>
<circle cx="267" cy="202" r="2" fill="#4dffb5" opacity="0.08"/>
<circle cx="1143" cy="419" r="1" fill="#ffffff" opacity="0.05"/>
<circle cx="1055" cy="838" r="3" fill="#4dffb5" opacity="0.12"/>
<circle cx="1086" cy="692" r="2" fill="#aab3ff" opacity="0.11"/>
<circle cx="1454" cy="450" r="2" fill="#aab3ff" opacity="0.08"/>
<circle cx="922" cy="680" r="2" fill="#4dffb5" opacity="0.06"/>
<circle cx="1335" cy="341" r="2" fill="#ffffff" opacity="0.11"/>
<circle cx="820" cy="163" r="2" fill="#ffffff" opacity="0.09"/>
<circle cx="1010" cy="817" r="3" fill="#aab3ff" opacity="0.10"/>
<circle cx="364" cy="619" r="2" fill="#4dffb5" opacity="0.04"/>
<circle cx="884" cy="129" r="2" fill="#aab3ff" opacity="0.08"/>
<circle cx="1237" cy="245" r="1" fill="#ffffff" opacity="0.09"/>
<circle cx="1339" cy="356" r="1" fill="#aab3ff" opacity="0.11"/>
<circle cx="590" cy="463" r="1" fill="#aab3ff" opacity="0.04"/>
<circle cx="1268" cy="290" r="2" fill="#aab3ff" opacity="0.05"/>
<circle cx="242" cy="737" r="1" fill="#ffffff" opacity="0.12"/>
<circle cx="1569" cy="461" r="1" fill="#4dffb5" opacity="0.12"/>
<circle cx="403" cy="338" r="3" fill="#4dffb5" opacity="0.07"/>
<circle cx="953" cy="815" r="1" fill="#aab3ff" opacity="0.11"/>
<circle cx="1177" cy="872" r="2" fill="#ffffff" opacity="0.05"/>
<circle cx="1504" cy="420" r="2" fill="#aab3ff" opacity="0.05"/>
<circle cx="98" cy="107" r="2" fill="#aab3ff" opacity="0.08"/>
<circle cx="982" cy="772" r="3" fill="#ffffff" opacity="0.05"/>
<circle cx="926" cy="571" r="2" fill="#4dffb5" opacity="0.04"/>
<circle cx="453" cy="85" r="1" fill="#4dffb5" opacity="0.05"/>
<circle cx="760" cy="151" r="1" fill="#aab3ff" opacity="0.04"/>
<circle cx="59" cy="647" r="3" fill="#ffffff" opacity="0.05"/>
<circle cx="397" cy="344" r="1" fill="#aab3ff" opacity="0.08"/>
<circle cx="549" cy="626" r="2" fill="#4dffb5" opacity="0.08"/>
<circle cx="675" cy="444" r="2" fill="#4dffb5" opacity="0.12"/>
<circle cx="535" cy="541" r="1" fill="#aab3ff" opacity="0.06"/>
<circle cx="687" cy="489" r="1" fill="#4dffb5" opacity="0.10"/>
<circle cx="139" cy="30" r="2" fill="#aab3ff" opacity="0.08"/>
<circle cx="1326" cy="158" r="1" fill="#ffffff" opacity="0.13"/>
<circle cx="1156" cy="570" r="2" fill="#ffffff" opacity="0.06"/>
<circle cx="343" cy="883" r="1" fill="#aab3ff" opacity="0.05"/>
<circle cx="398" cy="116" r="3" fill="#4dffb5" opacity="0.11"/>
<circle cx="591" cy="39" r="3" fill="#ffffff" opacity="0.08"/>
<circle cx="795" cy="280" r="1" fill="#4dffb5" opacity="0.05"/>
<circle cx="1295" cy="591" r="2" fill="#aab3ff" opacity="0.07"/>
<circle cx="564" cy="786" r="1" fill="#4dffb5" opacity="0.05"/>
<circle cx="1193" cy="728" r="3" fill="#aab3ff" opacity="0.08"/>
<circle cx="587" cy="254" r="3" fill="#4dffb5" opacity="0.06"/>
<circle cx="1427" cy="424" r="2" fill="#ffffff" opacity="0.13"/>
<circle cx="291" cy="767" r="1" fill="#ffffff" opacity="0.14"/>
<circle cx="467" cy="388" r="2" fill="#aab3ff" opacity="0.05"/>
<circle cx="1212" cy="678" r="2" fill="#ffffff" opacity="0.05"/>
<circle cx="744" cy="62" r="3" fill="#ffffff" opacity="0.13"/>
<circle cx="1188" cy="795" r="2" fill="#aab3ff" opacity="0.13"/>
<circle cx="729" cy="565" r="2" fill="#aab3ff" opacity="0.07"/>
<circle cx="554" cy="194" r="1" fill="#ffffff" opacity="0.11"/>
<circle cx="282" cy="651" r="3" fill="#aab3ff" opacity="0.11"/>
<circle cx="676" cy="242" r="3" fill="#4dffb5" opacity="0.10"/>
<circle cx="290" cy="200" r="2" fill="#aab3ff" opacity="0.11"/>
<circle cx="1102" cy="443" r="2" fill="#ffffff" opacity="0.05"/>
<circle cx="1324" cy="795" r="2" fill="#aab3ff" opacity="0.11"/>
<circle cx="56" cy="22" r="2" fill="#4dffb5" opacity="0.07"/>
<circle cx="786" cy="454" r="3" fill="#aab3ff" opacity="0.14"/>
<circle cx="1518" cy="588" r="2" fill="#4dffb5" opacity="0.14"/>
<circle cx="1285" cy="40" r="1" fill="#ffffff" opacity="0.09"/>
<circle cx="1553" cy="832" r="2" fill="#aab3ff" opacity="0.11"/>
<circle cx="31" cy="180" r="1" fill="#4dffb5" opacity="0.14"/>
<circle cx="25" cy="294" r="1" fill="#ffffff" opacity="0.06"/>
<circle cx="934" cy="540" r="3" fill="#ffffff" opacity="0.07"/>
<circle cx="1429" cy="500" r="2" fill="#4dffb5" opacity="0.06"/>
<circle cx="1081" cy="532" r="1" fill="#4dffb5" opacity="0.10"/>
<circle cx="912" cy="312" r="3" fill="#aab3ff" opacity="0.11"/>
<circle cx="1253" cy="310" r="1" fill="#ffffff" opacity="0.13"/>
<circle cx="1015" cy="782" r="3" fill="#aab3ff" opacity="0.11"/>
<circle cx="55" cy="44" r="2" fill="#4dffb5" opacity="0.13"/>
<circle cx="749" cy="885" r="2" fill="#4dffb5" opacity="0.04"/>
<circle cx="1568" cy="832" r="2" fill="#4dffb5" opacity="0.10"/>
<circle cx="652" cy="391" r="2" fill="#ffffff" opacity="0.13"/>
<circle cx="1395" cy="742" r="1" fill="#ffffff" opacity="0.07"/>
<circle cx="1433" cy="450" r="1" fill="#aab3ff" opacity="0.09"/>
<circle cx="651" cy="708" r="1" fill="#aab3ff" opacity="0.07"/>
<circle cx="780" cy="70" r="1" fill="#4dffb5" opacity="0.10"/>
<circle cx="1465" cy="588" r="2" fill="#4dffb5" opacity="0.12"/>
<circle cx="1310" cy="787" r="1" fill="#ffffff" opacity="0.11"/>
<circle cx="1238" cy="342" r="3" fill="#ffffff" opacity="0.05"/>
<circle cx="303" cy="642" r="2" fill="#4dffb5" opacity="0.10"/>
<circle cx="666" cy="403" r="2" fill="#aab3ff" opacity="0.11"/>
<circle cx="1185" cy="661" r="3" fill="#ffffff" opacity="0.09"/>
<circle cx="1191" cy="446" r="2" fill="#aab3ff" opacity="0.04"/>
<circle cx="1041" cy="533" r="3" fill="#4dffb5" opacity="0.12"/>
<circle cx="1511" cy="721" r="3" fill="#4dffb5" opacity="0.12"/>
<circle cx="1520" cy="540" r="2" fill="#aab3ff" opacity="0.13"/>
<circle cx="1358" cy="664" r="1" fill="#aab3ff" opacity="0.08"/>
<circle cx="353" cy="99" r="2" fill="#4dffb5" opacity="0.05"/>
<circle cx="1247" cy="139" r="1" fill="#aab3ff" opacity="0.07"/>
<circle cx="138" cy="93" r="2" fill="#aab3ff" opacity="0.14"/>
<circle cx="992" cy="711" r="3" fill="#4dffb5" opacity="0.08"/>
<circle cx="143" cy="619" r="3" fill="#aab3ff" opacity="0.10"/>
<circle cx="1384" cy="149" r="2" fill="#4dffb5" opacity="0.13"/>
<circle cx="543" cy="323" r="2" fill="#4dffb5" opacity="0.06"/>
<circle cx="1354" cy="705" r="1" fill="#ffffff" opacity="0.06"/>
<circle cx="862" cy="18" r="2" fill="#ffffff" opacity="0.08"/>
<circle cx="410" cy="407" r="2" fill="#4dffb5" opacity="0.12"/>
<circle cx="891" cy="130" r="2" fill="#ffffff" opacity="0.06"/>
<circle cx="753" cy="330" r="3" fill="#ffffff" opacity="0.09"/>
<circle cx="1023" cy="830" r="1" fill="#ffffff" opacity="0.10"/>
<circle cx="1014" cy="687" r="3" fill="#4dffb5" opacity="0.04"/>
<circle cx="768" cy="384" r="2" fill="#aab3ff" opacity="0.09"/>
<circle cx="1294" cy="402" r="1" fill="#ffffff" opacity="0.07"/>
<circle cx="613" cy="787" r="3" fill="#aab3ff" opacity="0.14"/>
<circle cx="836" cy="676" r="1" fill="#aab3ff" opacity="0.05"/>
<circle cx="1074" cy="301" r="1" fill="#aab3ff" opacity="0.08"/>
<circle cx="1156" cy="502" r="2" fill="#4dffb5" opacity="0.06"/>
<circle cx="930" cy="362" r="3" fill="#ffffff" opacity="0.05"/>
<circle cx="744" cy="854" r="3" fill="#aab3ff" opacity="0.10"/>
<circle cx="1550" cy="398" r="2" fill="#aab3ff" opacity="0.12"/>
<circle cx="1198" cy="621" r="1" fill="#ffffff" opacity="0.14"/>
<circle cx="911" cy="360" r="2" fill="#ffffff" opacity="0.10"/>
<circle cx="1357" cy="537" r="2" fill="#ffffff" opacity="0.13"/>
<circle cx="324" cy="711" r="2" fill="#ffffff" opacity="0.11"/>
<circle cx="166" cy="6" r="1" fill="#aab3ff" opacity="0.04"/>
<circle cx="647" cy="807" r="1" fill="#4dffb5" opacity="0.11"/>
<circle cx="1223" cy="395" r="3" fill="#ffffff" opacity="0.09"/>
<circle cx="1069" cy="567" r="1" fill="#aab3ff" opacity="0.05"/>
<circle cx="509" cy="681" r="3" fill="#ffffff" opacity="0.08"/>
<circle cx="310" cy="571" r="3" fill="#aab3ff" opacity="0.11"/>
<circle cx="1144" cy="227" r="1" fill="#aab3ff" opacity="0.04"/>
<circle cx="395" cy="256" r="1" fill="#ffffff" opacity="0.08"/>
<circle cx="1109" cy="790" r="3" fill="#ffffff" opacity="0.08"/>
<circle cx="1576" cy="129" r="3" fill="#ffffff" opacity="0.04"/>
<circle cx="661" cy="78" r="1" fill="#ffffff" opacity="0.06"/>
<circle cx="134" cy="299" r="1" fill="#4dffb5" opacity="0.09"/>
<circle cx="802" cy="407" r="3" fill="#4dffb5" opacity="0.12"/>
<circle cx="275" cy="238" r="3" fill="#ffffff" opacity="0.11"/>
<circle cx="572" cy="533" r="3" fill="#aab3ff" opacity="0.12"/>
<circle cx="1154" cy="873" r="1" fill="#ffffff" opacity="0.14"/>
<circle cx="1326" cy="697" r="2" fill="#ffffff" opacity="0.05"/>
<circle cx="1168" cy="859" r="1" fill="#4dffb5" opacity="0.12"/>
<circle cx="1414" cy="112" r="3" fill="#aab3ff" opacity="0.06"/>
<circle cx="201" cy="485" r="1" fill="#4dffb5" opacity="0.11"/>
<circle cx="125" cy="237" r="1" fill="#ffffff" opacity="0.13"/>
<circle cx="940" cy="25" r="3" fill="#4dffb5" opacity="0.05"/>
<circle cx="728" cy="186" r="1" fill="#4dffb5" opacity="0.11"/>
<circle cx="555" cy="333" r="2" fill="#4dffb5" opacity="0.13"/>
<circle cx="1157" cy="512" r="1" fill="#aab3ff" opacity="0.12"/>
<circle cx="36" cy="720" r="1" fill="#4dffb5" opacity="0.13"/>
<circle cx="855" cy="545" r="1" fill="#aab3ff" opacity="0.11"/>
<circle cx="522" cy="158" r="3" fill="#aab3ff" opacity="0.13"/>
<circle cx="870" cy="887" r="2" fill="#4dffb5" opacity="0.10"/>
<circle cx="1515" cy="238" r="1" fill="#ffffff" opacity="0.13"/>
<circle cx="1477" cy="139" r="1" fill="#aab3ff" opacity="0.04"/>
<circle cx="939" cy="58" r="3" fill="#aab3ff" opacity="0.10"/>
<circle cx="464" cy="198" r="3" fill="#ffffff" opacity="0.08"/>
<circle cx="119" cy="601" r="3" fill="#4dffb5" opacity="0.11"/>
<circle cx="148" cy="282" r="2" fill="#4dffb5" opacity="0.13"/>
<circle cx="1561" cy="209" r="1" fill="#aab3ff" opacity="0.07"/>
<circle cx="1167" cy="299" r="1" fill="#4dffb5" opacity="0.08"/>
<circle cx="1330" cy="50" r="3" fill="#aab3ff" opacity="0.11"/>
<circle cx="771" cy="223" r="1" fill="#aab3ff" opacity="0.05"/></g>

  <g font-family="Inter, system-ui, -apple-system, Segoe UI, Roboto, Arial" fill="#f4f6fb">
    <text x="90" y="140" font-size="62" font-weight="800" letter-spacing="-0.5">WOMEN</text>
    <text x="90" y="195" font-size="22" opacity="0.78">Elevated styles</text>
    <text x="90" y="820" font-size="16" opacity="0.50">Swap with your photo (WEBP recommended)</text>
  </g>
</svg>