<?xml version="1.0" encoding="UTF-8"?>
<svg xmlns="http://www.w3.org/2000/svg" width="1600" height="900" viewBox="0 0 1600 900">
  <defs>
    <linearGradient id="bg" x1="0" y1="0" x2="1" y2="1">
      <stop offset="0%" stop-color="#0b0d12"/>
      <stop offset="60%" stop-color="#111422"/>
      <stop offset="100%" stop-color="#0f1115"/>
    </linearGradient>
    <radialGradient id="g1" cx="20%" cy="18%" r="65%">
      <stop offset="0%" stop-color="#aab3ff" stop-opacity="0.22"/>
      <stop offset="60%" stop-color="#aab3ff" stop-opacity="0.05"/>
      <stop offset="100%" stop-color="#aab3ff" stop-opacity="0"/>
    </radialGradient>
    <radialGradient id="g2" cx="84%" cy="74%" r="72%">
      <stop offset="0%" stop-color="#4dffb5" stop-opacity="0.18"/>
      <stop offset="65%" stop-color="#4dffb5" stop-opacity="0.04"/>
      <stop offset="100%" stop-color="#4dffb5" stop-opacity="0"/>
    </radialGradient>
    <filter id="blur" x="-20%" y="-20%" width="140%" height="140%">
      <feGaussianBlur stdDeviation="18"/>
    </filter>
    <linearGradient id="stroke" x1="0" y1="0" x2="1" y2="1">
      <stop offset="0%" stop-color="#ffffff" stop-opacity="0.75"/>
      <stop offset="100%" stop-color="#aab3ff" stop-opacity="0.55"/>
    </linearGradient>
  </defs>

  <rect width="1600" height="900" fill="url(#bg)"/>
  <rect width="1600" height="900" fill="url(#g1)"/>
  <rect width="1600" height="900" fill="url(#g2)"/>

  <g filter="url(#blur)" opacity="0.85">
    <path d="M-80,560 C250,410 520,920 900,690 C1210,500 1320,250 1720,330" fill="none" stroke="url(#stroke)" stroke-width="6" stroke-linecap="round"/>
    <path d="M-80,680 C210,520 560,980 980,760 C1320,580 1420,340 1750,410" fill="none" stroke="url(#stroke)" stroke-width="3.5" stroke-linecap="round" opacity="0.55"/>
  </g>

  <g opacity="0.55"><circle cx="293" cy="199" r="3" fill="#ffffff" opacity="0.12"/>
<circle cx="732" cy="753" r="1" fill="#4dffb5" opacity="0.10"/>
<circle cx="1561" cy="77" r="2" fill="#4dffb5" opacity="0.13"/>
<circle cx="150" cy="881" r="1" fill="#aab3ff" opacity="0.08"/>
<circle cx="547" cy="347" r="2" fill="#4dffb5" opacity="0.04"/>
<circle cx="511" cy="879" r="2" fill="#aab3ff" opacity="0.05"/>
<circle cx="880" cy="437" r="2" fill="#4dffb5" opacity="0.06"/>
<circle cx="232" cy="879" r="1" fill="#ffffff" opacity="0.05"/>
<circle cx="1069" cy="296" r="2" fill="#4dffb5" opacity="0.12"/>
<circle cx="1527" cy="879" r="2" fill="#aab3ff" opacity="0.05"/>
<circle cx="1086" cy="276" r="2" fill="#4dffb5" opacity="0.14"/>
<circle cx="323" cy="371" r="1" fill="#aab3ff" opacity="0.12"/>
<circle cx="311" cy="6" r="2" fill="#ffffff" opacity="0.11"/>
<circle cx="1010" cy="734" r="1" fill="#4dffb5" opacity="0.13"/>
<circle cx="45" cy="104" r="2" fill="#ffffff" opacity="0.06"/>
<circle cx="1137" cy="92" r="3" fill="#ffffff" opacity="0.07"/>
<circle cx="651" cy="613" r="3" fill="#aab3ff" opacity="0.06"/>
<circle cx="786" cy="865" r="1" fill="#aab3ff" opacity="0.07"/>
<circle cx="333" cy="335" r="1" fill="#4dffb5" opacity="0.13"/>
<circle cx="1424" cy="282" r="2" fill="#aab3ff" opacity="0.06"/>
<circle cx="387" cy="487" r="2" fill="#ffffff" opacity="0.14"/>
<circle cx="637" cy="579" r="3" fill="#4dffb5" opacity="0.11"/>
<circle cx="283" cy="153" r="3" fill="#aab3ff" opacity="0.11"/>
<circle cx="684" cy="481" r="1" fill="#4dffb5" opacity="0.08"/>
<circle cx="478" cy="13" r="1" fill="#aab3ff" opacity="0.08"/>
<circle cx="1001" cy="800" r="1" fill="#aab3ff" opacity="0.11"/>
<circle cx="1368" cy="787" r="3" fill="#4dffb5" opacity="0.13"/>
<circle cx="151" cy="476" r="2" fill="#4dffb5" opacity="0.08"/>
<circle cx="713" cy="316" r="1" fill="#aab3ff" opacity="0.13"/>
<circle cx="351" cy="792" r="3" fill="#aab3ff" opacity="0.12"/>
<circle cx="994" cy="896" r="2" fill="#aab3ff" opacity="0.05"/>
<circle cx="1518" cy="704" r="3" fill="#aab3ff" opacity="0.09"/>
<circle cx="195" cy="836" r="3" fill="#ffffff" opacity="0.08"/>
<circle cx="696" cy="619" r="1" fill="#4dffb5" opacity="0.07"/>
<circle cx="405" cy="126" r="2" fill="#aab3ff" opacity="0.09"/>
<circle cx="321" cy="77" r="3" fill="#4dffb5" opacity="0.13"/>
<circle cx="199" cy="689" r="3" fill="#4dffb5" opacity="0.12"/>
<circle cx="1312" cy="836" r="3" fill="#ffffff" opacity="0.11"/>
<circle cx="617" cy="358" r="1" fill="#aab3ff" opacity="0.05"/>
<circle cx="778" cy="386" r="1" fill="#4dffb5" opacity="0.07"/>
<circle cx="1323" cy="618" r="1" fill="#ffffff" opacity="0.10"/>
<circle cx="702" cy="415" r="2" fill="#4dffb5" opacity="0.07"/>
<circle cx="578" cy="648" r="1" fill="#aab3ff" opacity="0.07"/>
<circle cx="891" cy="174" r="2" fill="#ffffff" opacity="0.06"/>
<circle cx="1506" cy="648" r="3" fill="#aab3ff" opacity="0.14"/>
<circle cx="412" cy="604" r="1" fill="#4dffb5" opacity="0.08"/>
<circle cx="901" cy="113" r="2" fill="#aab3ff" opacity="0.10"/>
<circle cx="480" cy="879" r="3" fill="#aab3ff" opacity="0.08"/>
<circle cx="701" cy="390" r="3" fill="#ffffff" opacity="0.04"/>
<circle cx="1581" cy="279" r="2" fill="#aab3ff" opacity="0.11"/>
<circle cx="431" cy="493" r="2" fill="#ffffff" opacity="0.06"/>
<circle cx="168" cy="4" r="1" fill="#aab3ff" opacity="0.11"/>
<circle cx="1566" cy="361" r="2" fill="#aab3ff" opacity="0.06"/>
<circle cx="445" cy="761" r="2" fill="#4dffb5" opacity="0.11"/>
<circle cx="997" cy="599" r="3" fill="#4dffb5" opacity="0.09"/>
<circle cx="1118" cy="435" r="3" fill="#ffffff" opacity="0.12"/>
<circle cx="45" cy="497" r="2" fill="#aab3ff" opacity="0.05"/>
<circle cx="230" cy="569" r="3" fill="#4dffb5" opacity="0.11"/>
<circle cx="1320" cy="88" r="3" fill="#aab3ff" opacity="0.11"/>
<circle cx="122" cy="317" r="1" fill="#aab3ff" opacity="0.08"/>
<circle cx="285" cy="780" r="3" fill="#ffffff" opacity="0.11"/>
<circle cx="285" cy="351" r="1" fill="#ffffff" opacity="0.10"/>
<circle cx="397" cy="407" r="2" fill="#aab3ff" opacity="0.07"/>
<circle cx="1448" cy="123" r="3" fill="#ffffff" opacity="0.12"/>
<circle cx="218" cy="725" r="1" fill="#aab3ff" opacity="0.13"/>
<circle cx="1154" cy="278" r="3" fill="#ffffff" opacity="0.11"/>
<circle cx="157" cy="288" r="3" fill="#ffffff" opacity="0.11"/>
<circle cx="309" cy="32" r="1" fill="#ffffff" opacity="0.12"/>
<circle cx="973" cy="36" r="3" fill="#ffffff" opacity="0.11"/>
<circle cx="137" cy="144" r="1" fill="#ffffff" opacity="0.06"/>
<circle cx="397" cy="566" r="2" fill="#ffffff" opacity="0.09"/>
<circle cx="742" cy="456" r="1" fill="#4dffb5" opacity="0.05"/>
<circle cx="251" cy="841" r="3" fill="#4dffb5" opacity="0.07"/>
<circle cx="658" cy="682" r="2" fill="#aab3ff" opacity="0.13"/>
<circle cx="426" cy="861" r="2" fill="#aab3ff" opacity="0.06"/>
<circle cx="1022" cy="500" r="3" fill="#aab3ff" opacity="0.07"/>
<circle cx="887" cy="552" r="3" fill="#aab3ff" opacity="0.09"/>
<circle cx="500" cy="83" r="2" fill="#aab3ff" opacity="0.07"/>
<circle cx="791" cy="243" r="2" fill="#aab3ff" opacity="0.05"/>
<circle cx="65" cy="215" r="3" fill="#4dffb5" opacity="0.12"/>
<circle cx="548" cy="231" r="1" fill="#aab3ff" opacity="0.12"/>
<circle cx="156" cy="818" r="3" fill="#4dffb5" opacity="0.06"/>
<circle cx="884" cy="342" r="1" fill="#4dffb5" opacity="0.13"/>
<circle cx="1331" cy="407" r="2" fill="#aab3ff" opacity="0.06"/>
<circle cx="542" cy="570" r="1" fill="#ffffff" opacity="0.11"/>
<circle cx="1185" cy="154" r="1" fill="#aab3ff" opacity="0.09"/>
<circle cx="868" cy="348" r="3" fill="#ffffff" opacity="0.12"/>
<circle cx="751" cy="159" r="1" fill="#4dffb5" opacity="0.12"/>
<circle cx="1158" cy="846" r="2" fill="#aab3ff" opacity="0.08"/>
<circle cx="187" cy="381" r="1" fill="#4dffb5" opacity="0.14"/>
<circle cx="721" cy="835" r="3" fill="#aab3ff" opacity="0.12"/>
<circle cx="1262" cy="29" r="3" fill="#4dffb5" opacity="0.05"/>
<circle cx="1575" cy="806" r="3" fill="#aab3ff" opacity="0.06"/>
<circle cx="1158" cy="642" r="2" fill="#aab3ff" opacity="0.06"/>
<circle cx="301" cy="871" r="3" fill="#aab3ff" opacity="0.11"/>
<circle cx="410" cy="87" r="2" fill="#ffffff" opacity="0.07"/>
<circle cx="690" cy="23" r="3" fill="#aab3ff" opacity="0.08"/>
<circle cx="519" cy="294" r="1" fill="#4dffb5" opacity="0.11"/>
<circle cx="154" cy="111" r="3" fill="#4dffb5" opacity="0.12"/>
<circle cx="197" cy="592" r="1" fill="#ffffff" opacity="0.12"/>
<circle cx="484" cy="268" r="2" fill="#4dffb5" opacity="0.06"/>
<circle cx="763" cy="657" r="1" fill="#ffffff" opacity="0.04"/>
<circle cx="831" cy="865" r="3" fill="#4dffb5" opacity="0.13"/>
<circle cx="242" cy="202" r="3" fill="#aab3ff" opacity="0.04"/>
<circle cx="42" cy="342" r="2" fill="#ffffff" opacity="0.09"/>
<circle cx="1020" cy="859" r="1" fill="#4dffb5" opacity="0.04"/>
<circle cx="1465" cy="84" r="2" fill="#aab3ff" opacity="0.14"/>
<circle cx="1473" cy="679" r="2" fill="#ffffff" opacity="0.12"/>
<circle cx="591" cy="472" r="2" fill="#4dffb5" opacity="0.06"/>
<circle cx="907" cy="690" r="3" fill="#aab3ff" opacity="0.05"/>
<circle cx="445" cy="38" r="3" fill="#ffffff" opacity="0.14"/>
<circle cx="1485" cy="197" r="2" fill="#aab3ff" opacity="0.05"/>
<circle cx="99" cy="418" r="1" fill="#ffffff" opacity="0.07"/>
<circle cx="560" cy="658" r="1" fill="#ffffff" opacity="0.13"/>
<circle cx="787" cy="883" r="1" fill="#aab3ff" opacity="0.10"/>
<circle cx="2" cy="211" r="2" fill="#ffffff" opacity="0.10"/>
<circle cx="1576" cy="699" r="3" fill="#4dffb5" opacity="0.11"/>
<circle cx="1245" cy="218" r="1" fill="#4dffb5" opacity="0.12"/>
<circle cx="1475" cy="715" r="2" fill="#aab3ff" opacity="0.10"/>
<circle cx="1076" cy="674" r="1" fill="#aab3ff" opacity="0.11"/>
<circle cx="762" cy="642" r="3" fill="#4dffb5" opacity="0.05"/>
<circle cx="789" cy="280" r="2" fill="#4dffb5" opacity="0.07"/>
<circle cx="962" cy="445" r="2" fill="#ffffff" opacity="0.12"/>
<circle cx="1149" cy="346" r="3" fill="#4dffb5" opacity="0.06"/>
<circle cx="1584" cy="88" r="1" fill="#ffffff" opacity="0.12"/>
<circle cx="193" cy="893" r="3" fill="#aab3ff" opacity="0.12"/>
<circle cx="1543" cy="6" r="2" fill="#4dffb5" opacity="0.04"/>
<circle cx="1331" cy="233" r="2" fill="#ffffff" opacity="0.10"/>
<circle cx="262" cy="256" r="2" fill="#4dffb5" opacity="0.07"/>
<circle cx="1369" cy="195" r="2" fill="#ffffff" opacity="0.07"/>
<circle cx="1005" cy="246" r="2" fill="#aab3ff" opacity="0.04"/>
<circle cx="1386" cy="355" r="2" fill="#aab3ff" opacity="0.11"/>
<circle cx="252" cy="777" r="1" fill="#ffffff" opacity="0.13"/>
<circle cx="262" cy="855" r="3" fill="#ffffff" opacity="0.09"/>
<circle cx="1105" cy="528" r="3" fill="#aab3ff" opacity="0.05"/>
<circle cx="925" cy="566" r="3" fill="#aab3ff" opacity="0.10"/>
<circle cx="440" cy="854" r="3" fill="#ffffff" opacity="0.08"/>
<circle cx="532" cy="320" r="1" fill="#aab3ff" opacity="0.13"/>
<circle cx="666" cy="258" r="2" fill="#ffffff" opacity="0.12"/>
<circle cx="981" cy="891" r="1" fill="#4dffb5" opacity="0.14"/>
<circle cx="1489" cy="388" r="3" fill="#4dffb5" opacity="0.08"/>
<circle cx="468" cy="579" r="1" fill="#ffffff" opacity="0.07"/>
<circle cx="537" cy="167" r="2" fill="#ffffff" opacity="0.10"/>
<circle cx="88" cy="315" r="1" fill="#aab3ff" opacity="0.07"/>
<circle cx="1328" cy="467" r="2" fill="#4dffb5" opacity="0.06"/>
<circle cx="1515" cy="688" r="1" fill="#4dffb5" opacity="0.05"/>
<circle cx="691" cy="46" r="2" fill="#4dffb5" opacity="0.13"/>
<circle cx="1032" cy="484" r="2" fill="#aab3ff" opacity="0.14"/>
<circle cx="933" cy="310" r="2" fill="#ffffff" opacity="0.07"/>
<circle cx="218" cy="729" r="3" fill="#aab3ff" opacity="0.13"/>
<circle cx="338" cy="479" r="1" fill="#aab3ff" opacity="0.05"/>
<circle cx="1274" cy="200" r="2" fill="#4dffb5" opacity="0.10"/>
<circle cx="1234" cy="109" r="3" fill="#4dffb5" opacity="0.07"/>
<circle cx="1552" cy="16" r="2" fill="#ffffff" opacity="0.06"/>
<circle cx="189" cy="394" r="1" fill="#ffffff" opacity="0.06"/>
<circle cx="1569" cy="721" r="1" fill="#ffffff" opacity="0.11"/>
<circle cx="1176" cy="153" r="3" fill="#ffffff" opacity="0.04"/>
<circle cx="383" cy="515" r="3" fill="#aab3ff" opacity="0.12"/>
<circle cx="787" cy="770" r="1" fill="#4dffb5" opacity="0.11"/>
<circle cx="183" cy="743" r="3" fill="#aab3ff" opacity="0.07"/>
<circle cx="573" cy="686" r="3" fill="#aab3ff" opacity="0.05"/>
<circle cx="1574" cy="484" r="1" fill="#aab3ff" opacity="0.06"/>
<circle cx="584" cy="501" r="2" fill="#ffffff" opacity="0.08"/>
<circle cx="604" cy="244" r="1" fill="#aab3ff" opacity="0.12"/>
<circle cx="1161" cy="261" r="3" fill="#aab3ff" opacity="0.11"/>
<circle cx="437" cy="286" r="2" fill="#aab3ff" opacity="0.09"/>
<circle cx="176" cy="95" r="1" fill="#aab3ff" opacity="0.13"/>
<circle cx="911" cy="124" r="1" fill="#ffffff" opacity="0.12"/>
<circle cx="1107" cy="292" r="1" fill="#ffffff" opacity="0.11"/>
<circle cx="1178" cy="2" r="2" fill="#ffffff" opacity="0.06"/>
<circle cx="1415" cy="361" r="1" fill="#ffffff" opacity="0.13"/>
<circle cx="1305" cy="142" r="1" fill="#ffffff" opacity="0.08"/>
<circle cx="1457" cy="521" r="1" fill="#4dffb5" opacity="0.12"/>
<circle cx="39" cy="506" r="3" fill="#ffffff" opacity="0.13"/>
<circle cx="1579" cy="392" r="2" fill="#ffffff" opacity="0.14"/>
<circle cx="479" cy="703" r="3" fill="#4dffb5" opacity="0.06"/>
<circle cx="579" cy="647" r="1" fill="#aab3ff" opacity="0.05"/>
<circle cx="561" cy="729" r="1" fill="#aab3ff" opacity="0.11"/>
<circle cx="185" cy="443" r="1" fill="#4dffb5" opacity="0.07"/>
<circle cx="537" cy="559" r="1" fill="#aab3ff" opacity="0.08"/>
<circle cx="1438" cy="691" r="3" fill="#4dffb5" opacity="0.10"/>
<circle cx="1237" cy="8" r="1" fill="#aab3ff" opacity="0.04"/>
<circle cx="1546" cy="174" r="3" fill="#aab3ff" opacity="0.08"/>
<circle cx="707" cy="57" r="2" fill="#ffffff" opacity="0.13"/>
<circle cx="1498" cy="505" r="1" fill="#4dffb5" opacity="0.13"/>
<circle cx="988" cy="747" r="2" fill="#ffffff" opacity="0.12"/>
<circle cx="704" cy="824" r="3" fill="#4dffb5" opacity="0.05"/>
<circle cx="1582" cy="493" r="3" fill="#4dffb5" opacity="0.10"/>
<circle cx="187" cy="429" r="2" fill="#ffffff" opacity="0.04"/>
<circle cx="30" cy="592" r="3" fill="#4dffb5" opacity="0.06"/>
<circle cx="100" cy="144" r="2" fill="#aab3ff" opacity="0.13"/>
<circle cx="1329" cy="869" r="1" fill="#4dffb5" opacity="0.07"/>
<circle cx="1072" cy="799" r="3" fill="#4dffb5" opacity="0.05"/>
<circle cx="843" cy="176" r="1" fill="#4dffb5" opacity="0.06"/>
<circle cx="824" cy="619" r="2" fill="#aab3ff" opacity="0.05"/>
<circle cx="327" cy="660" r="2" fill="#ffffff" opacity="0.10"/>
<circle cx="432" cy="276" r="2" fill="#4dffb5" opacity="0.07"/>
<circle cx="895" cy="561" r="2" fill="#aab3ff" opacity="0.12"/>
<circle cx="1026" cy="680" r="2" fill="#4dffb5" opacity="0.14"/>
<circle cx="1413" cy="682" r="2" fill="#4dffb5" opacity="0.05"/>
<circle cx="1122" cy="837" r="1" fill="#ffffff" opacity="0.08"/>
<circle cx="501" cy="116" r="1" fill="#4dffb5" opacity="0.13"/>
<circle cx="1346" cy="547" r="3" fill="#aab3ff" opacity="0.14"/>
<circle cx="1029" cy="346" r="3" fill="#4dffb5" opacity="0.09"/>
<circle cx="7" cy="851" r="2" fill="#ffffff" opacity="0.10"/>
<circle cx="1229" cy="273" r="2" fill="#4dffb5" opacity="0.09"/>
<circle cx="1364" cy="377" r="1" fill="#4dffb5" opacity="0.06"/>
<circle cx="1135" cy="430" r="2" fill="#ffffff" opacity="0.07"/>
<circle cx="692" cy="657" r="2" fill="#ffffff" opacity="0.14"/>
<circle cx="585" cy="732" r="1" fill="#4dffb5" opacity="0.07"/>
<circle cx="355" cy="482" r="3" fill="#4dffb5" opacity="0.13"/>
<circle cx="1499" cy="844" r="2" fill="#4dffb5" opacity="0.12"/>
<circle cx="1192" cy="500" r="1" fill="#4dffb5" opacity="0.12"/>
<circle cx="739" cy="251" r="2" fill="#ffffff" opacity="0.10"/>
<circle cx="773" cy="659" r="1" fill="#4dffb5" opacity="0.11"/>
<circle cx="223" cy="861" r="1" fill="#ffffff" opacity="0.13"/>
<circle cx="428" cy="569" r="3" fill="#aab3ff" opacity="0.13"/>
<circle cx="345" cy="628" r="3" fill="#4dffb5" opacity="0.08"/>
<circle cx="1091" cy="371" r="1" fill="#4dffb5" opacity="0.05"/>
<circle cx="1001" cy="507" r="3" fill="#4dffb5" opacity="0.05"/></g>

  <g font-family="Inter, system-ui, -apple-system, Segoe UI, Roboto, Arial" fill="#f4f6fb">
    <text x="90" y="140" font-size="62" font-weight="800" letter-spacing="-0.5">PRODUCT</text>
    <text x="90" y="195" font-size="22" opacity="0.78">Image placeholder</text>
    <text x="90" y="820" font-size="16" opacity="0.50">Swap with your photo (WEBP recommended)</text>
  </g>
</svg>