<?xml version="1.0" encoding="UTF-8"?>
<svg xmlns="http://www.w3.org/2000/svg" width="1600" height="900" viewBox="0 0 1600 900">
  <defs>
    <linearGradient id="bg" x1="0" y1="0" x2="1" y2="1">
      <stop offset="0%" stop-color="#0b0d12"/>
      <stop offset="60%" stop-color="#111422"/>
      <stop offset="100%" stop-color="#0f1115"/>
    </linearGradient>
    <radialGradient id="g1" cx="20%" cy="18%" r="65%">
      <stop offset="0%" stop-color="#aab3ff" stop-opacity="0.22"/>
      <stop offset="60%" stop-color="#aab3ff" stop-opacity="0.05"/>
      <stop offset="100%" stop-color="#aab3ff" stop-opacity="0"/>
    </radialGradient>
    <radialGradient id="g2" cx="84%" cy="74%" r="72%">
      <stop offset="0%" stop-color="#4dffb5" stop-opacity="0.18"/>
      <stop offset="65%" stop-color="#4dffb5" stop-opacity="0.04"/>
      <stop offset="100%" stop-color="#4dffb5" stop-opacity="0"/>
    </radialGradient>
    <filter id="blur" x="-20%" y="-20%" width="140%" height="140%">
      <feGaussianBlur stdDeviation="18"/>
    </filter>
    <linearGradient id="stroke" x1="0" y1="0" x2="1" y2="1">
      <stop offset="0%" stop-color="#ffffff" stop-opacity="0.75"/>
      <stop offset="100%" stop-color="#aab3ff" stop-opacity="0.55"/>
    </linearGradient>
  </defs>

  <rect width="1600" height="900" fill="url(#bg)"/>
  <rect width="1600" height="900" fill="url(#g1)"/>
  <rect width="1600" height="900" fill="url(#g2)"/>

  <g filter="url(#blur)" opacity="0.85">
    <path d="M-80,560 C250,410 520,920 900,690 C1210,500 1320,250 1720,330" fill="none" stroke="url(#stroke)" stroke-width="6" stroke-linecap="round"/>
    <path d="M-80,680 C210,520 560,980 980,760 C1320,580 1420,340 1750,410" fill="none" stroke="url(#stroke)" stroke-width="3.5" stroke-linecap="round" opacity="0.55"/>
  </g>

  <g opacity="0.55"><circle cx="1325" cy="484" r="3" fill="#4dffb5" opacity="0.07"/>
<circle cx="1069" cy="565" r="1" fill="#aab3ff" opacity="0.04"/>
<circle cx="121" cy="392" r="1" fill="#4dffb5" opacity="0.07"/>
<circle cx="644" cy="892" r="3" fill="#ffffff" opacity="0.05"/>
<circle cx="1339" cy="393" r="1" fill="#ffffff" opacity="0.07"/>
<circle cx="945" cy="351" r="3" fill="#aab3ff" opacity="0.09"/>
<circle cx="92" cy="29" r="2" fill="#4dffb5" opacity="0.10"/>
<circle cx="1537" cy="618" r="3" fill="#4dffb5" opacity="0.13"/>
<circle cx="716" cy="320" r="2" fill="#aab3ff" opacity="0.08"/>
<circle cx="33" cy="693" r="3" fill="#aab3ff" opacity="0.11"/>
<circle cx="1537" cy="678" r="1" fill="#ffffff" opacity="0.10"/>
<circle cx="1318" cy="609" r="3" fill="#4dffb5" opacity="0.10"/>
<circle cx="1336" cy="451" r="2" fill="#4dffb5" opacity="0.11"/>
<circle cx="388" cy="36" r="3" fill="#4dffb5" opacity="0.06"/>
<circle cx="734" cy="865" r="1" fill="#aab3ff" opacity="0.10"/>
<circle cx="17" cy="53" r="2" fill="#aab3ff" opacity="0.07"/>
<circle cx="2" cy="547" r="1" fill="#ffffff" opacity="0.08"/>
<circle cx="1367" cy="733" r="3" fill="#ffffff" opacity="0.06"/>
<circle cx="1133" cy="53" r="3" fill="#ffffff" opacity="0.10"/>
<circle cx="949" cy="778" r="2" fill="#aab3ff" opacity="0.13"/>
<circle cx="1060" cy="262" r="3" fill="#aab3ff" opacity="0.09"/>
<circle cx="125" cy="836" r="3" fill="#aab3ff" opacity="0.09"/>
<circle cx="217" cy="543" r="1" fill="#aab3ff" opacity="0.08"/>
<circle cx="96" cy="555" r="1" fill="#4dffb5" opacity="0.09"/>
<circle cx="1550" cy="527" r="1" fill="#ffffff" opacity="0.14"/>
<circle cx="739" cy="882" r="3" fill="#aab3ff" opacity="0.09"/>
<circle cx="317" cy="815" r="3" fill="#ffffff" opacity="0.10"/>
<circle cx="332" cy="762" r="3" fill="#aab3ff" opacity="0.09"/>
<circle cx="1087" cy="858" r="1" fill="#4dffb5" opacity="0.07"/>
<circle cx="1087" cy="427" r="1" fill="#4dffb5" opacity="0.10"/>
<circle cx="1201" cy="284" r="1" fill="#aab3ff" opacity="0.11"/>
<circle cx="599" cy="708" r="1" fill="#4dffb5" opacity="0.10"/>
<circle cx="1289" cy="67" r="3" fill="#ffffff" opacity="0.10"/>
<circle cx="1393" cy="894" r="2" fill="#4dffb5" opacity="0.05"/>
<circle cx="600" cy="203" r="3" fill="#ffffff" opacity="0.05"/>
<circle cx="920" cy="669" r="3" fill="#aab3ff" opacity="0.04"/>
<circle cx="35" cy="327" r="2" fill="#aab3ff" opacity="0.11"/>
<circle cx="318" cy="885" r="3" fill="#aab3ff" opacity="0.11"/>
<circle cx="1332" cy="372" r="2" fill="#aab3ff" opacity="0.09"/>
<circle cx="59" cy="304" r="2" fill="#ffffff" opacity="0.07"/>
<circle cx="639" cy="520" r="1" fill="#4dffb5" opacity="0.06"/>
<circle cx="522" cy="689" r="1" fill="#aab3ff" opacity="0.12"/>
<circle cx="899" cy="805" r="2" fill="#aab3ff" opacity="0.07"/>
<circle cx="1337" cy="469" r="1" fill="#ffffff" opacity="0.11"/>
<circle cx="287" cy="358" r="1" fill="#ffffff" opacity="0.06"/>
<circle cx="835" cy="237" r="3" fill="#aab3ff" opacity="0.09"/>
<circle cx="73" cy="304" r="3" fill="#4dffb5" opacity="0.10"/>
<circle cx="272" cy="523" r="3" fill="#aab3ff" opacity="0.06"/>
<circle cx="851" cy="598" r="3" fill="#aab3ff" opacity="0.04"/>
<circle cx="1597" cy="399" r="1" fill="#4dffb5" opacity="0.09"/>
<circle cx="1064" cy="5" r="3" fill="#4dffb5" opacity="0.09"/>
<circle cx="1599" cy="835" r="1" fill="#aab3ff" opacity="0.05"/>
<circle cx="570" cy="484" r="1" fill="#4dffb5" opacity="0.13"/>
<circle cx="219" cy="370" r="3" fill="#4dffb5" opacity="0.05"/>
<circle cx="302" cy="839" r="2" fill="#aab3ff" opacity="0.04"/>
<circle cx="1034" cy="858" r="2" fill="#4dffb5" opacity="0.05"/>
<circle cx="210" cy="468" r="2" fill="#ffffff" opacity="0.09"/>
<circle cx="1583" cy="368" r="2" fill="#4dffb5" opacity="0.04"/>
<circle cx="1073" cy="132" r="3" fill="#4dffb5" opacity="0.05"/>
<circle cx="1464" cy="36" r="1" fill="#4dffb5" opacity="0.13"/>
<circle cx="917" cy="584" r="2" fill="#4dffb5" opacity="0.05"/>
<circle cx="1515" cy="131" r="3" fill="#aab3ff" opacity="0.05"/>
<circle cx="574" cy="460" r="3" fill="#4dffb5" opacity="0.11"/>
<circle cx="1101" cy="73" r="1" fill="#aab3ff" opacity="0.04"/>
<circle cx="872" cy="637" r="1" fill="#aab3ff" opacity="0.07"/>
<circle cx="1033" cy="596" r="2" fill="#aab3ff" opacity="0.04"/>
<circle cx="1401" cy="194" r="2" fill="#ffffff" opacity="0.13"/>
<circle cx="1240" cy="249" r="1" fill="#ffffff" opacity="0.05"/>
<circle cx="548" cy="190" r="2" fill="#aab3ff" opacity="0.07"/>
<circle cx="67" cy="803" r="2" fill="#4dffb5" opacity="0.08"/>
<circle cx="377" cy="668" r="1" fill="#ffffff" opacity="0.14"/>
<circle cx="1096" cy="327" r="3" fill="#aab3ff" opacity="0.05"/>
<circle cx="252" cy="809" r="1" fill="#ffffff" opacity="0.06"/>
<circle cx="831" cy="364" r="2" fill="#ffffff" opacity="0.09"/>
<circle cx="1457" cy="49" r="1" fill="#4dffb5" opacity="0.10"/>
<circle cx="88" cy="485" r="2" fill="#4dffb5" opacity="0.07"/>
<circle cx="1294" cy="693" r="1" fill="#aab3ff" opacity="0.07"/>
<circle cx="17" cy="44" r="3" fill="#4dffb5" opacity="0.08"/>
<circle cx="1380" cy="104" r="2" fill="#ffffff" opacity="0.13"/>
<circle cx="1495" cy="338" r="2" fill="#aab3ff" opacity="0.12"/>
<circle cx="261" cy="581" r="2" fill="#aab3ff" opacity="0.05"/>
<circle cx="140" cy="19" r="1" fill="#aab3ff" opacity="0.08"/>
<circle cx="498" cy="28" r="3" fill="#aab3ff" opacity="0.09"/>
<circle cx="794" cy="689" r="3" fill="#aab3ff" opacity="0.07"/>
<circle cx="1042" cy="529" r="3" fill="#4dffb5" opacity="0.14"/>
<circle cx="391" cy="774" r="1" fill="#aab3ff" opacity="0.13"/>
<circle cx="268" cy="111" r="3" fill="#aab3ff" opacity="0.05"/>
<circle cx="1387" cy="837" r="2" fill="#aab3ff" opacity="0.07"/>
<circle cx="1433" cy="683" r="2" fill="#4dffb5" opacity="0.13"/>
<circle cx="26" cy="86" r="3" fill="#aab3ff" opacity="0.05"/>
<circle cx="737" cy="701" r="3" fill="#4dffb5" opacity="0.11"/>
<circle cx="735" cy="888" r="2" fill="#4dffb5" opacity="0.12"/>
<circle cx="1113" cy="688" r="1" fill="#4dffb5" opacity="0.05"/>
<circle cx="748" cy="416" r="2" fill="#ffffff" opacity="0.05"/>
<circle cx="776" cy="406" r="1" fill="#4dffb5" opacity="0.08"/>
<circle cx="1328" cy="188" r="1" fill="#4dffb5" opacity="0.09"/>
<circle cx="953" cy="681" r="3" fill="#aab3ff" opacity="0.10"/>
<circle cx="782" cy="70" r="3" fill="#ffffff" opacity="0.06"/>
<circle cx="629" cy="547" r="3" fill="#4dffb5" opacity="0.12"/>
<circle cx="673" cy="227" r="2" fill="#ffffff" opacity="0.05"/>
<circle cx="918" cy="267" r="2" fill="#ffffff" opacity="0.05"/>
<circle cx="22" cy="436" r="3" fill="#aab3ff" opacity="0.10"/>
<circle cx="1065" cy="497" r="2" fill="#ffffff" opacity="0.11"/>
<circle cx="763" cy="223" r="2" fill="#ffffff" opacity="0.11"/>
<circle cx="147" cy="637" r="1" fill="#ffffff" opacity="0.10"/>
<circle cx="236" cy="618" r="1" fill="#ffffff" opacity="0.08"/>
<circle cx="864" cy="476" r="1" fill="#ffffff" opacity="0.14"/>
<circle cx="1351" cy="333" r="1" fill="#ffffff" opacity="0.06"/>
<circle cx="65" cy="314" r="3" fill="#ffffff" opacity="0.10"/>
<circle cx="1376" cy="496" r="3" fill="#aab3ff" opacity="0.06"/>
<circle cx="203" cy="271" r="2" fill="#aab3ff" opacity="0.06"/>
<circle cx="957" cy="146" r="3" fill="#4dffb5" opacity="0.05"/>
<circle cx="880" cy="518" r="1" fill="#4dffb5" opacity="0.07"/>
<circle cx="171" cy="209" r="3" fill="#aab3ff" opacity="0.09"/>
<circle cx="47" cy="97" r="1" fill="#4dffb5" opacity="0.08"/>
<circle cx="1078" cy="291" r="3" fill="#aab3ff" opacity="0.07"/>
<circle cx="577" cy="358" r="3" fill="#aab3ff" opacity="0.09"/>
<circle cx="1478" cy="835" r="1" fill="#ffffff" opacity="0.11"/>
<circle cx="153" cy="362" r="3" fill="#aab3ff" opacity="0.11"/>
<circle cx="662" cy="438" r="3" fill="#aab3ff" opacity="0.07"/>
<circle cx="278" cy="754" r="2" fill="#aab3ff" opacity="0.05"/>
<circle cx="60" cy="796" r="2" fill="#4dffb5" opacity="0.07"/>
<circle cx="387" cy="525" r="1" fill="#aab3ff" opacity="0.08"/>
<circle cx="253" cy="231" r="1" fill="#4dffb5" opacity="0.13"/>
<circle cx="966" cy="801" r="1" fill="#4dffb5" opacity="0.13"/>
<circle cx="949" cy="605" r="1" fill="#4dffb5" opacity="0.08"/>
<circle cx="158" cy="858" r="1" fill="#aab3ff" opacity="0.14"/>
<circle cx="927" cy="219" r="3" fill="#ffffff" opacity="0.06"/>
<circle cx="113" cy="438" r="1" fill="#4dffb5" opacity="0.12"/>
<circle cx="362" cy="742" r="1" fill="#4dffb5" opacity="0.14"/>
<circle cx="1073" cy="461" r="1" fill="#4dffb5" opacity="0.04"/>
<circle cx="905" cy="285" r="3" fill="#ffffff" opacity="0.13"/>
<circle cx="1307" cy="771" r="2" fill="#aab3ff" opacity="0.11"/>
<circle cx="646" cy="136" r="3" fill="#4dffb5" opacity="0.13"/>
<circle cx="1594" cy="313" r="2" fill="#ffffff" opacity="0.06"/>
<circle cx="965" cy="578" r="2" fill="#ffffff" opacity="0.11"/>
<circle cx="926" cy="102" r="3" fill="#ffffff" opacity="0.12"/>
<circle cx="1502" cy="326" r="2" fill="#aab3ff" opacity="0.11"/>
<circle cx="118" cy="589" r="2" fill="#ffffff" opacity="0.05"/>
<circle cx="281" cy="878" r="3" fill="#aab3ff" opacity="0.14"/>
<circle cx="642" cy="399" r="2" fill="#4dffb5" opacity="0.08"/>
<circle cx="560" cy="651" r="3" fill="#aab3ff" opacity="0.07"/>
<circle cx="638" cy="126" r="2" fill="#ffffff" opacity="0.04"/>
<circle cx="1351" cy="372" r="1" fill="#ffffff" opacity="0.11"/>
<circle cx="166" cy="87" r="2" fill="#ffffff" opacity="0.13"/>
<circle cx="1370" cy="171" r="2" fill="#aab3ff" opacity="0.05"/>
<circle cx="1456" cy="645" r="2" fill="#ffffff" opacity="0.12"/>
<circle cx="1133" cy="654" r="1" fill="#aab3ff" opacity="0.11"/>
<circle cx="1191" cy="695" r="3" fill="#aab3ff" opacity="0.12"/>
<circle cx="1444" cy="526" r="3" fill="#aab3ff" opacity="0.04"/>
<circle cx="430" cy="488" r="2" fill="#aab3ff" opacity="0.08"/>
<circle cx="1031" cy="446" r="1" fill="#aab3ff" opacity="0.07"/>
<circle cx="464" cy="245" r="1" fill="#aab3ff" opacity="0.13"/>
<circle cx="927" cy="766" r="2" fill="#aab3ff" opacity="0.12"/>
<circle cx="236" cy="24" r="2" fill="#aab3ff" opacity="0.13"/>
<circle cx="164" cy="231" r="2" fill="#4dffb5" opacity="0.14"/>
<circle cx="272" cy="790" r="3" fill="#ffffff" opacity="0.06"/>
<circle cx="436" cy="534" r="2" fill="#ffffff" opacity="0.12"/>
<circle cx="1513" cy="395" r="1" fill="#ffffff" opacity="0.05"/>
<circle cx="502" cy="719" r="1" fill="#aab3ff" opacity="0.04"/>
<circle cx="831" cy="124" r="3" fill="#4dffb5" opacity="0.08"/>
<circle cx="49" cy="552" r="1" fill="#aab3ff" opacity="0.09"/>
<circle cx="1168" cy="5" r="2" fill="#aab3ff" opacity="0.12"/>
<circle cx="444" cy="112" r="2" fill="#4dffb5" opacity="0.06"/>
<circle cx="554" cy="454" r="2" fill="#ffffff" opacity="0.14"/>
<circle cx="716" cy="369" r="3" fill="#ffffff" opacity="0.06"/>
<circle cx="1525" cy="436" r="3" fill="#aab3ff" opacity="0.10"/>
<circle cx="488" cy="845" r="3" fill="#ffffff" opacity="0.11"/>
<circle cx="1266" cy="633" r="3" fill="#4dffb5" opacity="0.12"/>
<circle cx="671" cy="154" r="2" fill="#4dffb5" opacity="0.12"/>
<circle cx="757" cy="733" r="1" fill="#4dffb5" opacity="0.05"/>
<circle cx="899" cy="417" r="2" fill="#aab3ff" opacity="0.12"/>
<circle cx="1438" cy="359" r="2" fill="#4dffb5" opacity="0.11"/>
<circle cx="525" cy="166" r="2" fill="#ffffff" opacity="0.09"/>
<circle cx="1157" cy="304" r="1" fill="#ffffff" opacity="0.08"/>
<circle cx="1077" cy="662" r="1" fill="#4dffb5" opacity="0.10"/>
<circle cx="73" cy="22" r="1" fill="#ffffff" opacity="0.13"/>
<circle cx="1391" cy="834" r="2" fill="#4dffb5" opacity="0.04"/>
<circle cx="974" cy="342" r="1" fill="#4dffb5" opacity="0.11"/>
<circle cx="700" cy="819" r="2" fill="#aab3ff" opacity="0.09"/>
<circle cx="22" cy="411" r="3" fill="#ffffff" opacity="0.08"/>
<circle cx="625" cy="748" r="1" fill="#4dffb5" opacity="0.10"/>
<circle cx="384" cy="220" r="3" fill="#4dffb5" opacity="0.14"/>
<circle cx="1277" cy="299" r="2" fill="#aab3ff" opacity="0.11"/>
<circle cx="387" cy="530" r="1" fill="#aab3ff" opacity="0.06"/>
<circle cx="212" cy="412" r="3" fill="#aab3ff" opacity="0.06"/>
<circle cx="42" cy="339" r="1" fill="#aab3ff" opacity="0.11"/>
<circle cx="938" cy="500" r="1" fill="#ffffff" opacity="0.06"/>
<circle cx="388" cy="440" r="2" fill="#ffffff" opacity="0.04"/>
<circle cx="128" cy="388" r="1" fill="#aab3ff" opacity="0.11"/>
<circle cx="1280" cy="686" r="1" fill="#aab3ff" opacity="0.09"/>
<circle cx="64" cy="78" r="2" fill="#4dffb5" opacity="0.06"/>
<circle cx="464" cy="202" r="1" fill="#aab3ff" opacity="0.08"/>
<circle cx="1257" cy="485" r="2" fill="#4dffb5" opacity="0.08"/>
<circle cx="111" cy="149" r="2" fill="#ffffff" opacity="0.07"/>
<circle cx="1288" cy="40" r="1" fill="#aab3ff" opacity="0.12"/>
<circle cx="842" cy="307" r="3" fill="#4dffb5" opacity="0.13"/>
<circle cx="220" cy="196" r="2" fill="#4dffb5" opacity="0.11"/>
<circle cx="78" cy="540" r="1" fill="#aab3ff" opacity="0.06"/>
<circle cx="894" cy="293" r="2" fill="#aab3ff" opacity="0.10"/>
<circle cx="293" cy="784" r="1" fill="#aab3ff" opacity="0.04"/>
<circle cx="566" cy="382" r="3" fill="#aab3ff" opacity="0.09"/>
<circle cx="1571" cy="844" r="2" fill="#ffffff" opacity="0.13"/>
<circle cx="577" cy="738" r="2" fill="#aab3ff" opacity="0.14"/>
<circle cx="589" cy="164" r="2" fill="#4dffb5" opacity="0.05"/>
<circle cx="1034" cy="328" r="2" fill="#aab3ff" opacity="0.09"/>
<circle cx="1284" cy="697" r="3" fill="#ffffff" opacity="0.08"/>
<circle cx="1034" cy="205" r="1" fill="#aab3ff" opacity="0.06"/>
<circle cx="941" cy="720" r="1" fill="#ffffff" opacity="0.07"/>
<circle cx="1586" cy="812" r="3" fill="#4dffb5" opacity="0.08"/>
<circle cx="499" cy="397" r="1" fill="#aab3ff" opacity="0.06"/>
<circle cx="453" cy="580" r="2" fill="#4dffb5" opacity="0.06"/>
<circle cx="909" cy="804" r="3" fill="#ffffff" opacity="0.07"/>
<circle cx="1578" cy="720" r="2" fill="#aab3ff" opacity="0.10"/>
<circle cx="533" cy="200" r="1" fill="#ffffff" opacity="0.08"/>
<circle cx="100" cy="900" r="2" fill="#aab3ff" opacity="0.05"/>
<circle cx="1310" cy="251" r="1" fill="#ffffff" opacity="0.04"/>
<circle cx="1208" cy="864" r="3" fill="#ffffff" opacity="0.11"/>
<circle cx="474" cy="487" r="2" fill="#ffffff" opacity="0.10"/>
<circle cx="929" cy="485" r="2" fill="#4dffb5" opacity="0.07"/></g>

  <g font-family="Inter, system-ui, -apple-system, Segoe UI, Roboto, Arial" fill="#f4f6fb">
    <text x="90" y="140" font-size="62" font-weight="800" letter-spacing="-0.5">DROPS</text>
    <text x="90" y="195" font-size="22" opacity="0.78">New & trending</text>
    <text x="90" y="820" font-size="16" opacity="0.50">Swap with your photo (WEBP recommended)</text>
  </g>
</svg>