<?xml version="1.0" encoding="UTF-8"?>
<svg xmlns="http://www.w3.org/2000/svg" width="1600" height="900" viewBox="0 0 1600 900">
  <defs>
    <linearGradient id="bg" x1="0" y1="0" x2="1" y2="1">
      <stop offset="0%" stop-color="#0b0d12"/>
      <stop offset="60%" stop-color="#111422"/>
      <stop offset="100%" stop-color="#0f1115"/>
    </linearGradient>
    <radialGradient id="g1" cx="20%" cy="18%" r="65%">
      <stop offset="0%" stop-color="#aab3ff" stop-opacity="0.22"/>
      <stop offset="60%" stop-color="#aab3ff" stop-opacity="0.05"/>
      <stop offset="100%" stop-color="#aab3ff" stop-opacity="0"/>
    </radialGradient>
    <radialGradient id="g2" cx="84%" cy="74%" r="72%">
      <stop offset="0%" stop-color="#4dffb5" stop-opacity="0.18"/>
      <stop offset="65%" stop-color="#4dffb5" stop-opacity="0.04"/>
      <stop offset="100%" stop-color="#4dffb5" stop-opacity="0"/>
    </radialGradient>
    <filter id="blur" x="-20%" y="-20%" width="140%" height="140%">
      <feGaussianBlur stdDeviation="18"/>
    </filter>
    <linearGradient id="stroke" x1="0" y1="0" x2="1" y2="1">
      <stop offset="0%" stop-color="#ffffff" stop-opacity="0.75"/>
      <stop offset="100%" stop-color="#aab3ff" stop-opacity="0.55"/>
    </linearGradient>
  </defs>

  <rect width="1600" height="900" fill="url(#bg)"/>
  <rect width="1600" height="900" fill="url(#g1)"/>
  <rect width="1600" height="900" fill="url(#g2)"/>

  <g filter="url(#blur)" opacity="0.85">
    <path d="M-80,560 C250,410 520,920 900,690 C1210,500 1320,250 1720,330" fill="none" stroke="url(#stroke)" stroke-width="6" stroke-linecap="round"/>
    <path d="M-80,680 C210,520 560,980 980,760 C1320,580 1420,340 1750,410" fill="none" stroke="url(#stroke)" stroke-width="3.5" stroke-linecap="round" opacity="0.55"/>
  </g>

  <g opacity="0.55"><circle cx="329" cy="292" r="3" fill="#aab3ff" opacity="0.13"/>
<circle cx="82" cy="833" r="1" fill="#4dffb5" opacity="0.10"/>
<circle cx="758" cy="115" r="2" fill="#4dffb5" opacity="0.13"/>
<circle cx="124" cy="27" r="1" fill="#ffffff" opacity="0.07"/>
<circle cx="1588" cy="54" r="3" fill="#aab3ff" opacity="0.04"/>
<circle cx="596" cy="153" r="3" fill="#4dffb5" opacity="0.09"/>
<circle cx="299" cy="60" r="3" fill="#aab3ff" opacity="0.12"/>
<circle cx="695" cy="129" r="2" fill="#4dffb5" opacity="0.10"/>
<circle cx="1177" cy="239" r="2" fill="#ffffff" opacity="0.08"/>
<circle cx="708" cy="331" r="1" fill="#ffffff" opacity="0.13"/>
<circle cx="991" cy="543" r="1" fill="#aab3ff" opacity="0.06"/>
<circle cx="551" cy="824" r="3" fill="#ffffff" opacity="0.07"/>
<circle cx="661" cy="355" r="1" fill="#aab3ff" opacity="0.06"/>
<circle cx="1047" cy="835" r="1" fill="#ffffff" opacity="0.05"/>
<circle cx="161" cy="311" r="3" fill="#4dffb5" opacity="0.04"/>
<circle cx="1549" cy="46" r="3" fill="#ffffff" opacity="0.12"/>
<circle cx="1576" cy="810" r="2" fill="#4dffb5" opacity="0.11"/>
<circle cx="1370" cy="212" r="3" fill="#ffffff" opacity="0.09"/>
<circle cx="1462" cy="161" r="2" fill="#aab3ff" opacity="0.13"/>
<circle cx="331" cy="762" r="1" fill="#4dffb5" opacity="0.13"/>
<circle cx="1305" cy="544" r="2" fill="#ffffff" opacity="0.07"/>
<circle cx="1253" cy="155" r="2" fill="#aab3ff" opacity="0.10"/>
<circle cx="1080" cy="432" r="2" fill="#aab3ff" opacity="0.12"/>
<circle cx="77" cy="170" r="1" fill="#aab3ff" opacity="0.06"/>
<circle cx="517" cy="413" r="1" fill="#4dffb5" opacity="0.07"/>
<circle cx="181" cy="219" r="1" fill="#aab3ff" opacity="0.05"/>
<circle cx="1525" cy="38" r="1" fill="#aab3ff" opacity="0.11"/>
<circle cx="1268" cy="407" r="1" fill="#ffffff" opacity="0.05"/>
<circle cx="947" cy="422" r="2" fill="#4dffb5" opacity="0.06"/>
<circle cx="1101" cy="730" r="2" fill="#ffffff" opacity="0.06"/>
<circle cx="248" cy="852" r="2" fill="#aab3ff" opacity="0.11"/>
<circle cx="1249" cy="344" r="2" fill="#ffffff" opacity="0.05"/>
<circle cx="1168" cy="102" r="3" fill="#ffffff" opacity="0.09"/>
<circle cx="1147" cy="804" r="1" fill="#4dffb5" opacity="0.13"/>
<circle cx="1265" cy="643" r="3" fill="#aab3ff" opacity="0.13"/>
<circle cx="1406" cy="231" r="3" fill="#ffffff" opacity="0.06"/>
<circle cx="1024" cy="107" r="3" fill="#ffffff" opacity="0.09"/>
<circle cx="1001" cy="476" r="3" fill="#4dffb5" opacity="0.07"/>
<circle cx="926" cy="223" r="2" fill="#aab3ff" opacity="0.07"/>
<circle cx="133" cy="152" r="3" fill="#4dffb5" opacity="0.11"/>
<circle cx="195" cy="466" r="2" fill="#ffffff" opacity="0.12"/>
<circle cx="1153" cy="831" r="3" fill="#aab3ff" opacity="0.11"/>
<circle cx="825" cy="517" r="2" fill="#ffffff" opacity="0.14"/>
<circle cx="302" cy="481" r="3" fill="#aab3ff" opacity="0.10"/>
<circle cx="132" cy="891" r="3" fill="#ffffff" opacity="0.05"/>
<circle cx="1523" cy="599" r="2" fill="#ffffff" opacity="0.07"/>
<circle cx="905" cy="676" r="2" fill="#ffffff" opacity="0.13"/>
<circle cx="1424" cy="803" r="2" fill="#aab3ff" opacity="0.14"/>
<circle cx="1275" cy="234" r="3" fill="#ffffff" opacity="0.13"/>
<circle cx="742" cy="499" r="2" fill="#4dffb5" opacity="0.09"/>
<circle cx="1230" cy="267" r="2" fill="#aab3ff" opacity="0.09"/>
<circle cx="1202" cy="687" r="1" fill="#4dffb5" opacity="0.08"/>
<circle cx="1141" cy="23" r="3" fill="#ffffff" opacity="0.13"/>
<circle cx="1202" cy="511" r="3" fill="#aab3ff" opacity="0.08"/>
<circle cx="198" cy="181" r="1" fill="#aab3ff" opacity="0.07"/>
<circle cx="984" cy="850" r="1" fill="#aab3ff" opacity="0.13"/>
<circle cx="866" cy="245" r="3" fill="#4dffb5" opacity="0.10"/>
<circle cx="279" cy="760" r="1" fill="#ffffff" opacity="0.11"/>
<circle cx="294" cy="38" r="2" fill="#aab3ff" opacity="0.13"/>
<circle cx="244" cy="507" r="1" fill="#ffffff" opacity="0.13"/>
<circle cx="966" cy="273" r="3" fill="#4dffb5" opacity="0.07"/>
<circle cx="785" cy="511" r="1" fill="#aab3ff" opacity="0.05"/>
<circle cx="863" cy="774" r="3" fill="#ffffff" opacity="0.08"/>
<circle cx="14" cy="158" r="3" fill="#4dffb5" opacity="0.05"/>
<circle cx="940" cy="40" r="3" fill="#ffffff" opacity="0.04"/>
<circle cx="251" cy="620" r="1" fill="#aab3ff" opacity="0.12"/>
<circle cx="1134" cy="847" r="1" fill="#4dffb5" opacity="0.09"/>
<circle cx="132" cy="142" r="2" fill="#ffffff" opacity="0.13"/>
<circle cx="1119" cy="230" r="3" fill="#4dffb5" opacity="0.14"/>
<circle cx="944" cy="767" r="3" fill="#ffffff" opacity="0.08"/>
<circle cx="1019" cy="187" r="2" fill="#aab3ff" opacity="0.11"/>
<circle cx="736" cy="813" r="2" fill="#aab3ff" opacity="0.07"/>
<circle cx="1219" cy="406" r="3" fill="#ffffff" opacity="0.07"/>
<circle cx="63" cy="853" r="1" fill="#aab3ff" opacity="0.04"/>
<circle cx="1458" cy="748" r="1" fill="#4dffb5" opacity="0.05"/>
<circle cx="334" cy="628" r="3" fill="#4dffb5" opacity="0.10"/>
<circle cx="1172" cy="230" r="2" fill="#4dffb5" opacity="0.09"/>
<circle cx="757" cy="32" r="2" fill="#4dffb5" opacity="0.07"/>
<circle cx="307" cy="812" r="1" fill="#4dffb5" opacity="0.08"/>
<circle cx="1155" cy="77" r="1" fill="#ffffff" opacity="0.06"/>
<circle cx="638" cy="76" r="3" fill="#aab3ff" opacity="0.05"/>
<circle cx="466" cy="479" r="2" fill="#4dffb5" opacity="0.07"/>
<circle cx="74" cy="551" r="3" fill="#aab3ff" opacity="0.12"/>
<circle cx="1491" cy="740" r="2" fill="#ffffff" opacity="0.06"/>
<circle cx="1056" cy="610" r="3" fill="#ffffff" opacity="0.08"/>
<circle cx="73" cy="186" r="3" fill="#aab3ff" opacity="0.06"/>
<circle cx="339" cy="826" r="1" fill="#4dffb5" opacity="0.06"/>
<circle cx="1465" cy="114" r="1" fill="#aab3ff" opacity="0.13"/>
<circle cx="1260" cy="290" r="1" fill="#4dffb5" opacity="0.07"/>
<circle cx="32" cy="41" r="3" fill="#4dffb5" opacity="0.06"/>
<circle cx="6" cy="338" r="3" fill="#aab3ff" opacity="0.09"/>
<circle cx="119" cy="748" r="3" fill="#aab3ff" opacity="0.06"/>
<circle cx="893" cy="406" r="1" fill="#ffffff" opacity="0.07"/>
<circle cx="1079" cy="179" r="3" fill="#ffffff" opacity="0.08"/>
<circle cx="1054" cy="654" r="3" fill="#ffffff" opacity="0.14"/>
<circle cx="1304" cy="667" r="2" fill="#4dffb5" opacity="0.05"/>
<circle cx="472" cy="531" r="1" fill="#4dffb5" opacity="0.06"/>
<circle cx="155" cy="89" r="2" fill="#ffffff" opacity="0.04"/>
<circle cx="764" cy="813" r="1" fill="#4dffb5" opacity="0.14"/>
<circle cx="1511" cy="520" r="2" fill="#aab3ff" opacity="0.08"/>
<circle cx="1354" cy="763" r="1" fill="#aab3ff" opacity="0.14"/>
<circle cx="1423" cy="745" r="1" fill="#ffffff" opacity="0.07"/>
<circle cx="658" cy="184" r="2" fill="#4dffb5" opacity="0.14"/>
<circle cx="517" cy="827" r="2" fill="#aab3ff" opacity="0.05"/>
<circle cx="174" cy="454" r="3" fill="#ffffff" opacity="0.06"/>
<circle cx="1152" cy="694" r="2" fill="#ffffff" opacity="0.04"/>
<circle cx="534" cy="422" r="1" fill="#4dffb5" opacity="0.08"/>
<circle cx="354" cy="223" r="3" fill="#4dffb5" opacity="0.05"/>
<circle cx="1464" cy="345" r="2" fill="#ffffff" opacity="0.13"/>
<circle cx="512" cy="63" r="2" fill="#aab3ff" opacity="0.06"/>
<circle cx="184" cy="95" r="2" fill="#4dffb5" opacity="0.10"/>
<circle cx="81" cy="684" r="3" fill="#aab3ff" opacity="0.12"/>
<circle cx="803" cy="539" r="2" fill="#4dffb5" opacity="0.11"/>
<circle cx="661" cy="777" r="2" fill="#ffffff" opacity="0.14"/>
<circle cx="1151" cy="741" r="1" fill="#ffffff" opacity="0.08"/>
<circle cx="166" cy="505" r="1" fill="#4dffb5" opacity="0.06"/>
<circle cx="938" cy="826" r="2" fill="#ffffff" opacity="0.11"/>
<circle cx="1440" cy="169" r="2" fill="#aab3ff" opacity="0.08"/>
<circle cx="1113" cy="701" r="3" fill="#aab3ff" opacity="0.12"/>
<circle cx="212" cy="462" r="1" fill="#4dffb5" opacity="0.14"/>
<circle cx="1083" cy="787" r="2" fill="#aab3ff" opacity="0.14"/>
<circle cx="986" cy="9" r="3" fill="#4dffb5" opacity="0.08"/>
<circle cx="617" cy="152" r="2" fill="#aab3ff" opacity="0.10"/>
<circle cx="1071" cy="304" r="1" fill="#4dffb5" opacity="0.08"/>
<circle cx="710" cy="682" r="2" fill="#aab3ff" opacity="0.08"/>
<circle cx="478" cy="161" r="1" fill="#aab3ff" opacity="0.05"/>
<circle cx="297" cy="815" r="1" fill="#4dffb5" opacity="0.12"/>
<circle cx="443" cy="845" r="2" fill="#aab3ff" opacity="0.04"/>
<circle cx="1190" cy="639" r="3" fill="#ffffff" opacity="0.13"/>
<circle cx="872" cy="603" r="2" fill="#4dffb5" opacity="0.10"/>
<circle cx="820" cy="461" r="2" fill="#ffffff" opacity="0.06"/>
<circle cx="1282" cy="833" r="2" fill="#ffffff" opacity="0.07"/>
<circle cx="1537" cy="298" r="1" fill="#ffffff" opacity="0.13"/>
<circle cx="606" cy="311" r="1" fill="#aab3ff" opacity="0.08"/>
<circle cx="1500" cy="719" r="3" fill="#aab3ff" opacity="0.12"/>
<circle cx="589" cy="541" r="1" fill="#aab3ff" opacity="0.07"/>
<circle cx="595" cy="288" r="1" fill="#ffffff" opacity="0.13"/>
<circle cx="627" cy="895" r="1" fill="#ffffff" opacity="0.09"/>
<circle cx="313" cy="269" r="3" fill="#ffffff" opacity="0.09"/>
<circle cx="1333" cy="69" r="3" fill="#aab3ff" opacity="0.07"/>
<circle cx="47" cy="308" r="1" fill="#4dffb5" opacity="0.12"/>
<circle cx="976" cy="802" r="1" fill="#aab3ff" opacity="0.04"/>
<circle cx="1205" cy="809" r="3" fill="#ffffff" opacity="0.09"/>
<circle cx="289" cy="85" r="1" fill="#4dffb5" opacity="0.10"/>
<circle cx="928" cy="808" r="3" fill="#ffffff" opacity="0.06"/>
<circle cx="1567" cy="568" r="1" fill="#ffffff" opacity="0.07"/>
<circle cx="30" cy="687" r="3" fill="#4dffb5" opacity="0.04"/>
<circle cx="1393" cy="439" r="2" fill="#aab3ff" opacity="0.05"/>
<circle cx="1480" cy="811" r="1" fill="#ffffff" opacity="0.13"/>
<circle cx="710" cy="342" r="3" fill="#aab3ff" opacity="0.12"/>
<circle cx="1319" cy="282" r="2" fill="#4dffb5" opacity="0.13"/>
<circle cx="623" cy="884" r="2" fill="#4dffb5" opacity="0.05"/>
<circle cx="1352" cy="712" r="3" fill="#aab3ff" opacity="0.05"/>
<circle cx="1200" cy="387" r="3" fill="#aab3ff" opacity="0.07"/>
<circle cx="875" cy="723" r="1" fill="#4dffb5" opacity="0.09"/>
<circle cx="929" cy="527" r="2" fill="#ffffff" opacity="0.12"/>
<circle cx="438" cy="879" r="2" fill="#aab3ff" opacity="0.07"/>
<circle cx="58" cy="595" r="1" fill="#ffffff" opacity="0.11"/>
<circle cx="507" cy="633" r="1" fill="#ffffff" opacity="0.13"/>
<circle cx="981" cy="460" r="1" fill="#ffffff" opacity="0.07"/>
<circle cx="763" cy="430" r="3" fill="#4dffb5" opacity="0.07"/>
<circle cx="970" cy="529" r="2" fill="#4dffb5" opacity="0.14"/>
<circle cx="173" cy="112" r="1" fill="#aab3ff" opacity="0.12"/>
<circle cx="708" cy="584" r="3" fill="#aab3ff" opacity="0.10"/>
<circle cx="776" cy="628" r="3" fill="#4dffb5" opacity="0.04"/>
<circle cx="1417" cy="618" r="2" fill="#4dffb5" opacity="0.12"/>
<circle cx="688" cy="39" r="2" fill="#4dffb5" opacity="0.05"/>
<circle cx="999" cy="893" r="2" fill="#ffffff" opacity="0.09"/>
<circle cx="1149" cy="519" r="2" fill="#ffffff" opacity="0.14"/>
<circle cx="1000" cy="814" r="1" fill="#ffffff" opacity="0.13"/>
<circle cx="173" cy="270" r="2" fill="#aab3ff" opacity="0.06"/>
<circle cx="1092" cy="363" r="3" fill="#4dffb5" opacity="0.05"/>
<circle cx="597" cy="394" r="2" fill="#ffffff" opacity="0.11"/>
<circle cx="1083" cy="335" r="3" fill="#ffffff" opacity="0.12"/>
<circle cx="1188" cy="625" r="1" fill="#ffffff" opacity="0.13"/>
<circle cx="569" cy="423" r="1" fill="#4dffb5" opacity="0.07"/>
<circle cx="452" cy="44" r="1" fill="#ffffff" opacity="0.06"/>
<circle cx="972" cy="552" r="1" fill="#aab3ff" opacity="0.04"/>
<circle cx="916" cy="15" r="1" fill="#4dffb5" opacity="0.08"/>
<circle cx="1286" cy="337" r="3" fill="#ffffff" opacity="0.11"/>
<circle cx="1376" cy="896" r="3" fill="#ffffff" opacity="0.06"/>
<circle cx="1283" cy="256" r="3" fill="#4dffb5" opacity="0.12"/>
<circle cx="242" cy="381" r="1" fill="#aab3ff" opacity="0.05"/>
<circle cx="839" cy="853" r="3" fill="#aab3ff" opacity="0.07"/>
<circle cx="61" cy="701" r="3" fill="#ffffff" opacity="0.07"/>
<circle cx="1010" cy="428" r="3" fill="#aab3ff" opacity="0.06"/>
<circle cx="1027" cy="779" r="2" fill="#ffffff" opacity="0.09"/>
<circle cx="851" cy="110" r="1" fill="#aab3ff" opacity="0.11"/>
<circle cx="1010" cy="32" r="2" fill="#4dffb5" opacity="0.08"/>
<circle cx="195" cy="76" r="3" fill="#4dffb5" opacity="0.06"/>
<circle cx="1365" cy="639" r="3" fill="#aab3ff" opacity="0.13"/>
<circle cx="539" cy="164" r="1" fill="#aab3ff" opacity="0.12"/>
<circle cx="489" cy="561" r="1" fill="#ffffff" opacity="0.07"/>
<circle cx="420" cy="811" r="3" fill="#ffffff" opacity="0.08"/>
<circle cx="1336" cy="83" r="1" fill="#4dffb5" opacity="0.08"/>
<circle cx="1270" cy="778" r="1" fill="#ffffff" opacity="0.09"/>
<circle cx="382" cy="675" r="1" fill="#ffffff" opacity="0.11"/>
<circle cx="1431" cy="314" r="2" fill="#4dffb5" opacity="0.07"/>
<circle cx="687" cy="141" r="1" fill="#4dffb5" opacity="0.12"/>
<circle cx="1463" cy="701" r="3" fill="#aab3ff" opacity="0.14"/>
<circle cx="1466" cy="493" r="1" fill="#4dffb5" opacity="0.05"/>
<circle cx="1019" cy="156" r="1" fill="#ffffff" opacity="0.08"/>
<circle cx="684" cy="776" r="2" fill="#aab3ff" opacity="0.14"/>
<circle cx="1022" cy="720" r="3" fill="#4dffb5" opacity="0.10"/>
<circle cx="624" cy="376" r="2" fill="#aab3ff" opacity="0.13"/>
<circle cx="1235" cy="322" r="1" fill="#4dffb5" opacity="0.04"/>
<circle cx="1171" cy="111" r="1" fill="#4dffb5" opacity="0.12"/>
<circle cx="203" cy="689" r="1" fill="#4dffb5" opacity="0.06"/>
<circle cx="305" cy="546" r="2" fill="#4dffb5" opacity="0.07"/>
<circle cx="792" cy="66" r="1" fill="#4dffb5" opacity="0.09"/>
<circle cx="514" cy="126" r="1" fill="#ffffff" opacity="0.05"/>
<circle cx="221" cy="316" r="1" fill="#ffffff" opacity="0.14"/>
<circle cx="912" cy="87" r="3" fill="#aab3ff" opacity="0.05"/>
<circle cx="697" cy="549" r="3" fill="#4dffb5" opacity="0.05"/>
<circle cx="1533" cy="68" r="3" fill="#aab3ff" opacity="0.08"/>
<circle cx="179" cy="709" r="1" fill="#4dffb5" opacity="0.11"/>
<circle cx="923" cy="723" r="3" fill="#ffffff" opacity="0.09"/>
<circle cx="620" cy="534" r="1" fill="#4dffb5" opacity="0.11"/>
<circle cx="745" cy="780" r="1" fill="#ffffff" opacity="0.08"/>
<circle cx="683" cy="60" r="1" fill="#4dffb5" opacity="0.09"/></g>

  <g font-family="Inter, system-ui, -apple-system, Segoe UI, Roboto, Arial" fill="#f4f6fb">
    <text x="90" y="140" font-size="62" font-weight="800" letter-spacing="-0.5">MEN</text>
    <text x="90" y="195" font-size="22" opacity="0.78">Essentials & upgrades</text>
    <text x="90" y="820" font-size="16" opacity="0.50">Swap with your photo (WEBP recommended)</text>
  </g>
</svg>